# xmcd CD database file
#
# Track frame offsets:
#	150
#	15520
#	33827
#	49162
#	62953
#	82723
#	102213
#	122526
#	145470
#	163941
#	182888
#	216161
#	240079
#
# Disc length: 3494 seconds
#
# Revision: 0
# Processed by: cddbd v1.5.2PL0 Copyright (c) Steve Scherf et al.
# Submitted via: CDex 1.79
#
DISCID=a60da40d
DTITLE=Tony O'Malley - My Foolish Heart
DYEAR=2003
DGENRE=Jazz
TTITLE0=Steppin' Out With My Baby
TTITLE1=If I Fell
TTITLE2=Smile
TTITLE3=Hey, Good Looking
TTITLE4=My Foolish Heart
TTITLE5=Maybe It's Because I'm a Londoner
TTITLE6=Rockin' Chair
TTITLE7=I Can't Give You Anything But My Love, Baby
TTITLE8=Isn't It a Lovely Day
TTITLE9=Georgia On My Mind
TTITLE10=Bewitched, Bothered and Bewildered
TTITLE11=Deep, Deep Trouble
TTITLE12=Have Yourself a Merry Little Christmas
EXTD=YEAR: 2003
EXTT0=
EXTT1=
EXTT2=
EXTT3=
EXTT4=
EXTT5=
EXTT6=
EXTT7=
EXTT8=
EXTT9=
EXTT10=
EXTT11=
EXTT12=
PLAYORDER=
